<svg width="24" height="24" viewBox="0 0 24 24" fill="none" xmlns="http://www.w3.org/2000/svg">
<path d="M15.9999 16.4444C15.383 16.4451 14.7803 16.6292 14.2683 16.9733C13.7562 17.3174 13.3581 17.806 13.1244 18.3769C12.3889 18.1706 11.6109 18.1706 10.8755 18.3769C10.5917 17.6889 10.0703 17.1257 9.40627 16.7898C8.74221 16.4538 7.9796 16.3675 7.25725 16.5466C6.53491 16.7256 5.90086 17.158 5.47051 17.7652C5.04017 18.3723 4.84214 19.1138 4.91247 19.8547C4.9828 20.5955 5.31682 21.2865 5.85373 21.8018C6.39064 22.3172 7.09473 22.6226 7.83786 22.6624C8.58098 22.7023 9.31373 22.4741 9.90272 22.0192C10.4917 21.5643 10.8978 20.9131 11.047 20.184C11.3532 20.0735 11.6747 20.0114 11.9999 20C12.3252 20.0113 12.6467 20.0734 12.9528 20.184C13.0717 20.7602 13.3515 21.291 13.7598 21.7146C14.1682 22.1383 14.6883 22.4374 15.2598 22.5774C15.8313 22.7173 16.4308 22.6923 16.9886 22.5053C17.5465 22.3183 18.0399 21.9769 18.4116 21.5208C18.7833 21.0646 19.018 20.5124 19.0885 19.9283C19.159 19.3441 19.0624 18.752 18.8099 18.2205C18.5574 17.689 18.1594 17.2401 17.662 16.9257C17.1646 16.6113 16.5883 16.4445 15.9999 16.4444ZM7.99992 20.8889C7.73621 20.8889 7.47842 20.8107 7.25916 20.6642C7.03989 20.5177 6.869 20.3094 6.76808 20.0658C6.66716 19.8221 6.64076 19.5541 6.6922 19.2954C6.74365 19.0368 6.87064 18.7992 7.05711 18.6127C7.24358 18.4263 7.48116 18.2993 7.7398 18.2478C7.99844 18.1964 8.26653 18.2228 8.51016 18.3237C8.7538 18.4246 8.96204 18.5955 9.10855 18.8148C9.25505 19.034 9.33325 19.2918 9.33325 19.5555C9.33325 19.9092 9.19278 20.2483 8.94273 20.4983C8.69268 20.7484 8.35354 20.8889 7.99992 20.8889ZM15.9999 20.8889C15.7362 20.8889 15.4784 20.8107 15.2592 20.6642C15.0399 20.5177 14.869 20.3094 14.7681 20.0658C14.6672 19.8221 14.6408 19.5541 14.6922 19.2954C14.7437 19.0368 14.8706 18.7992 15.0571 18.6127C15.2436 18.4263 15.4812 18.2993 15.7398 18.2478C15.9984 18.1964 16.2665 18.2228 16.5102 18.3237C16.7538 18.4246 16.962 18.5955 17.1085 18.8148C17.2551 19.034 17.3333 19.2918 17.3333 19.5555C17.3333 19.9092 17.1928 20.2483 16.9427 20.4983C16.6927 20.7484 16.3535 20.8889 15.9999 20.8889ZM19.0888 9.04443C18.8524 1.87731 14.9333 1.35642 14.7599 1.33865C14.7289 1.3351 14.6978 1.33332 14.6666 1.33331C13.8957 1.36393 13.15 1.61641 12.519 2.06042C12.367 2.16678 12.1859 2.22382 12.0004 2.22382C11.8148 2.22382 11.6337 2.16678 11.4817 2.06042C10.8504 1.61647 10.1044 1.36402 9.33325 1.33331C9.30355 1.33348 9.27387 1.33526 9.24436 1.33865C9.07192 1.35642 5.15547 1.87731 4.91547 9.04443C3.72703 9.44176 1.33325 10.4382 1.33325 12C1.33325 15.28 6.83903 15.5555 11.9999 15.5555C17.1608 15.5555 22.6666 15.28 22.6666 12C22.6666 10.4382 20.2728 9.44176 19.0888 9.04443ZM9.38214 3.11554C9.77001 3.15732 10.1413 3.29544 10.4621 3.51731C10.9134 3.8319 11.4503 4.00056 12.0004 4.00056C12.5505 4.00056 13.0873 3.8319 13.5386 3.51731C13.8573 3.29694 14.2256 3.15891 14.6106 3.11554C15.0061 3.20976 17.1964 3.97242 17.327 9.21154C15.6545 9.9595 13.8302 10.3056 11.9999 10.2222C10.1698 10.3056 8.34549 9.95977 6.67281 9.21242C6.80436 3.92887 9.02925 3.19998 9.38214 3.11554ZM11.9999 13.7778C4.65325 13.7778 3.11103 12.8106 3.10036 12.0729C3.80328 11.382 4.68282 10.8979 5.64259 10.6738C7.6145 11.6491 9.80252 12.1055 11.9999 12C14.1973 12.1055 16.3853 11.6491 18.3573 10.6738C19.2946 10.9081 20.1625 11.3627 20.8888 12C20.8888 12.8106 19.3466 13.7778 11.9999 13.7778Z" fill="#25252A"/>
</svg>
