<svg width="24" height="24" viewBox="0 0 24 24" fill="none" xmlns="http://www.w3.org/2000/svg">
<mask id="mask0_555_93" style="mask-type:alpha" maskUnits="userSpaceOnUse" x="0" y="0" width="24" height="24">
<rect width="24" height="24" fill="#D9D9D9"/>
</mask>
<g mask="url(#mask0_555_93)">
<path d="M23.2595 17.5332C23.2592 19.4521 20.5027 20.8945 16.8422 20.8945C16.3355 20.8945 15.8461 20.865 15.379 20.8123V18.3868C15.8516 18.4279 16.3403 18.4501 16.8422 18.4501C19.4884 18.4501 21.7683 17.8566 23.2595 16.8971V17.5332ZM23.2595 14.0803C23.2591 15.1131 20.7593 16.6163 16.8422 16.6164C16.3293 16.6164 15.8408 16.5888 15.379 16.5417V14.1086C15.8516 14.1497 16.3403 14.172 16.8422 14.172C19.4884 14.1719 21.7683 13.5794 23.2595 12.6199V14.0803ZM23.2595 10.0762C23.2588 11.109 20.7591 12.6123 16.8422 12.6123C16.3293 12.6123 15.8408 12.5847 15.379 12.5376V10.1821C15.379 10.1558 15.3757 10.1297 15.3752 10.1036C15.849 10.145 16.339 10.1679 16.8422 10.1679C19.4884 10.1679 21.7683 9.57436 23.2595 8.61488V10.0762ZM16.8422 1C20.5027 1.00003 23.2591 2.44249 23.2595 4.36128V5.79805C23.2591 6.83087 20.7593 8.33411 16.8422 8.33414C16.1138 8.33414 15.4343 8.28174 14.8109 8.19046C13.9673 6.83988 12.281 5.96231 10.425 5.5003V4.36128C10.4253 2.44247 13.1817 1 16.8422 1Z" fill="#25252A"/>
<path d="M0.740601 19.0031C2.23179 19.9626 4.51135 20.5554 7.1576 20.5554C9.80385 20.5554 12.0834 19.9626 13.5746 19.0031V19.6387C13.5746 21.5577 10.8183 23 7.1576 23C3.49686 23 0.740601 21.5577 0.740601 19.6387V19.0031Z" fill="#25252A"/>
<path d="M0.740601 14.7251C2.23179 15.6846 4.51135 16.2774 7.1576 16.2774C9.80385 16.2774 12.0834 15.6846 13.5746 14.7251V16.1858C13.5746 17.2186 11.075 18.722 7.1576 18.722C3.24018 18.722 0.740601 17.2186 0.740601 16.1858V14.7251Z" fill="#25252A"/>
<path d="M0.740601 11.9078V10.4716C0.740601 8.55258 3.49686 7.11029 7.1576 7.11029C10.8183 7.11029 13.5746 8.55258 13.5746 10.4716V11.9078C13.5746 12.9406 11.075 14.444 7.1576 14.444C3.24018 14.444 0.740601 12.9406 0.740601 11.9078Z" fill="#25252A"/>
</g>
</svg>
