<svg width="24" height="24" viewBox="0 0 24 24" fill="none" xmlns="http://www.w3.org/2000/svg">
<mask id="mask0_1084_75" style="mask-type:alpha" maskUnits="userSpaceOnUse" x="0" y="0" width="24" height="24">
<rect width="24" height="24" fill="#D9D9D9"/>
</mask>
<g mask="url(#mask0_1084_75)">
<path fill-rule="evenodd" clip-rule="evenodd" d="M14.8038 16.1442C14.9961 16.0248 15.1553 15.9221 15.2969 15.8189L16.1591 16.6563C15.9641 17.0538 15.8593 17.4937 15.8593 17.9425C15.8593 18.734 16.183 19.4928 16.7588 20.0525C17.3346 20.6122 18.1153 20.9268 18.9297 20.9268C19.744 20.9268 20.5247 20.6122 21.1005 20.0525C21.6763 19.4928 22 18.734 22 17.9425C22 17.151 21.6763 16.3922 21.1005 15.8325C20.5967 15.3429 19.9362 15.0407 19.2335 14.9728L18.9297 14.9582C18.4675 14.9582 18.0176 15.0626 17.6084 15.2526L16.5855 14.2584C16.929 13.623 17.1255 12.9247 17.1625 12.2001L17.1685 11.9533C17.1685 11.1483 16.9679 10.3634 16.5933 9.66191L17.6056 8.67729C18.0145 8.86684 18.4672 8.96872 18.9289 8.96872C19.7432 8.96872 20.5239 8.65408 21.0997 8.09442C21.6755 7.53475 21.9992 6.77591 21.9992 5.98442C21.9992 5.19293 21.6755 4.43409 21.0997 3.87442C20.5239 3.31475 19.7432 3.00011 18.9289 3.00011C18.1146 3.00011 17.3338 3.31475 16.758 3.87442C16.2543 4.36404 15.9434 5.00605 15.8735 5.6891L15.8585 5.98442C15.8585 6.43363 15.966 6.87088 16.1614 7.26868L15.2928 8.11287C15.1611 8.00348 15.0203 7.89802 14.8728 7.80326C14.042 7.26968 13.0619 6.97946 12.0513 6.97946C10.8382 6.97946 9.66962 7.39832 8.74983 8.15336L7.84086 7.27051C8.03587 6.87302 8.14069 6.43307 8.14069 5.98431C8.14069 5.19282 7.81698 4.43397 7.24118 3.87431C6.66538 3.31464 5.88465 3 5.07035 3C4.25604 3 3.47532 3.31464 2.89952 3.87431C2.32371 4.43397 2 5.19282 2 5.98431C2 6.77579 2.32371 7.53464 2.89952 8.0943C3.40325 8.58393 4.06377 8.88614 4.76651 8.95404L5.07035 8.96861C5.53251 8.96861 5.98237 8.86417 6.39164 8.67426L7.47674 9.72896C7.45415 9.7696 7.43339 9.80942 7.41477 9.84817C7.10099 10.5011 6.93403 11.2189 6.93403 11.9533C6.93403 12.8429 7.17937 13.7077 7.63345 14.4627L6.82449 15.2495C6.41554 15.06 5.96291 14.9581 5.5012 14.9581C4.68689 14.9581 3.90617 15.2727 3.33037 15.8324C2.75457 16.3921 2.43085 17.1509 2.43085 17.9424C2.43085 18.7339 2.75457 19.4927 3.33037 20.0524C3.90617 20.6121 4.68689 20.9267 5.5012 20.9267C6.31551 20.9267 7.09623 20.6121 7.67203 20.0524C8.17577 19.5628 8.4867 18.9208 8.55655 18.2377L8.57155 17.9424C8.57155 17.4932 8.4641 17.0559 8.26871 16.6581L9.028 15.9201C9.38064 16.1659 9.84576 16.4585 10.2462 16.6056C10.9166 16.8518 11.4285 16.9271 12.0513 16.9271L12.3051 16.9213C13.1983 16.8782 13.9403 16.6802 14.8038 16.1442ZM4.0469 5.98431C4.0469 5.72048 4.1548 5.46753 4.34674 5.28097C4.53867 5.09442 4.79891 4.98954 5.07035 4.98954C5.34178 4.98954 5.60202 5.09442 5.79396 5.28097C5.98589 5.46753 6.0938 5.72048 6.0938 5.98431C6.0938 6.24813 5.98589 6.50108 5.79396 6.68764C5.60202 6.87419 5.34178 6.97907 5.07035 6.97907L4.9694 6.97422C4.73503 6.95165 4.51473 6.85092 4.34674 6.68764C4.1548 6.50108 4.0469 6.24813 4.0469 5.98431ZM14.2221 9.84331C14.7258 10.3329 15.0368 10.9749 15.1066 11.658L15.1216 11.9533C15.1216 12.7448 14.7979 13.5036 14.2221 14.0633C13.7184 14.5529 13.0578 14.8551 12.3551 14.923L12.0513 14.9376C11.237 14.9376 10.4562 14.623 9.88044 14.0633C9.3767 13.5737 9.06578 12.9317 8.99592 12.2486L8.98093 11.9533C8.98093 11.1618 9.30464 10.403 9.88044 9.84331C10.4562 9.28364 11.237 8.969 12.0513 8.969C12.8656 8.969 13.6463 9.28364 14.2221 9.84331ZM4.77759 18.6457C4.96952 18.8323 5.22977 18.9372 5.5012 18.9372C5.77263 18.9372 6.03288 18.8323 6.22481 18.6457C6.3928 18.4824 6.49643 18.2683 6.51965 18.0405L6.52465 17.9424C6.52465 17.6786 6.41674 17.4256 6.22481 17.2391C6.03288 17.0525 5.77263 16.9476 5.5012 16.9476C5.22977 16.9476 4.96952 17.0525 4.77759 17.2391C4.58566 17.4256 4.47775 17.6786 4.47775 17.9424C4.47775 18.2062 4.58566 18.4592 4.77759 18.6457ZM18.9289 4.98965C19.2003 4.98965 19.4605 5.09453 19.6525 5.28109C19.8444 5.46764 19.9523 5.72059 19.9523 5.98442C19.9523 6.24825 19.8444 6.5012 19.6525 6.68775C19.4605 6.87431 19.2003 6.97919 18.9289 6.97919C18.6574 6.97919 18.3972 6.87431 18.2053 6.68775C18.0133 6.5012 17.9054 6.24825 17.9054 5.98442L17.9104 5.8863C17.9336 5.6585 18.0373 5.44437 18.2053 5.28109C18.3972 5.09453 18.6574 4.98965 18.9289 4.98965ZM19.6533 18.6458C19.8452 18.4593 19.9531 18.2063 19.9531 17.9425C19.9531 17.6787 19.8452 17.4257 19.6533 17.2392C19.4853 17.0759 19.265 16.9752 19.0306 16.9526L18.9297 16.9477C18.6582 16.9477 18.398 17.0526 18.206 17.2392C18.0141 17.4257 17.9062 17.6787 17.9062 17.9425C17.9062 18.2063 18.0141 18.4593 18.206 18.6458C18.398 18.8324 18.6582 18.9373 18.9297 18.9373C19.2011 18.9373 19.4613 18.8324 19.6533 18.6458Z" fill="#25252A"/>
<path d="M21.7007 11.524C21.7128 11.7177 21.7215 11.9128 21.7198 12.1096C21.7182 12.3067 21.7064 12.502 21.6911 12.6959L20.8365 12.6392C20.8505 12.4621 20.8586 12.2834 20.8601 12.1032C20.8616 11.9229 20.8564 11.7442 20.8453 11.5669L21.7007 11.524Z" fill="#25252A"/>
<path d="M20.3661 14.73C20.4934 14.3959 20.5973 14.0518 20.6767 13.6994L21.0958 13.7791L21.097 13.778L21.5173 13.8577C21.4301 14.2443 21.3144 14.6211 21.1746 14.9876L20.3661 14.73Z" fill="#25252A"/>
<path d="M21.2218 9.22485C21.3555 9.59342 21.4651 9.97189 21.5459 10.3598L20.7029 10.5045C20.6292 10.1509 20.531 9.80528 20.4092 9.46939L21.2218 9.22485Z" fill="#25252A"/>
<path d="M13.5816 20.0729C13.9691 20.0059 14.3478 19.9165 14.7159 19.8056L14.9844 20.5484C14.5806 20.6701 14.1658 20.7699 13.7408 20.8433L13.5816 20.0729Z" fill="#25252A"/>
<path d="M13.7989 3.64402L13.8848 3.2595C14.3086 3.33923 14.7216 3.44517 15.1234 3.57289L14.8427 4.31048C14.4766 4.19407 14.0993 4.09907 13.713 4.02635L13.7989 3.64402Z" fill="#25252A"/>
<path d="M11.2422 20.1934C11.4363 20.2063 11.6321 20.2138 11.8297 20.2153C12.0272 20.2167 12.2231 20.2121 12.4174 20.2021L12.4649 20.9837C12.2527 20.9946 12.0388 21.0014 11.8232 20.9998C11.6072 20.9982 11.3931 20.9883 11.1807 20.9742L11.2422 20.1934Z" fill="#25252A"/>
<path d="M11.3271 3.0906C11.5397 3.07965 11.754 3.07189 11.97 3.07349C12.1856 3.07509 12.3993 3.08608 12.6114 3.10014L12.551 3.87986C12.357 3.86697 12.1611 3.85945 11.9636 3.85799C11.766 3.85652 11.5701 3.86112 11.3759 3.87113L11.3271 3.0906Z" fill="#25252A"/>
<path d="M8.95049 19.7628C9.31667 19.8792 9.69392 19.9742 10.0802 20.0469L9.99312 20.4303L9.90723 20.8148C9.48353 20.7351 9.07036 20.6292 8.66862 20.5015L8.95049 19.7628Z" fill="#25252A"/>
<path d="M8.80761 3.52599C9.21143 3.40421 9.6262 3.30451 10.0512 3.23103L10.132 3.6157L10.1308 3.61678L10.2116 4.00035C9.82415 4.06733 9.4454 4.15671 9.07735 4.26767L8.80761 3.52599Z" fill="#25252A"/>
<path d="M2.65563 13.6443L3.09036 13.5688C3.16402 13.9223 3.26223 14.268 3.38408 14.6039L2.57021 14.8495C2.43652 14.481 2.32691 14.1024 2.24613 13.7146L2.65563 13.6443Z" fill="#25252A"/>
<path d="M2.27476 10.2166C2.36184 9.83008 2.47773 9.4532 2.61739 9.08669L3.42715 9.34328C3.29982 9.67732 3.19595 10.0215 3.11651 10.3739L2.68308 10.2919L2.27476 10.2166Z" fill="#25252A"/>
<path d="M2.07339 11.9637C2.075 11.767 2.0857 11.5719 2.10096 11.3785L2.95673 11.4341C2.94274 11.6111 2.93463 11.7898 2.93316 11.9701C2.93168 12.1503 2.93686 12.3291 2.94796 12.5063L2.09137 12.5503C2.07923 12.3563 2.07177 12.1608 2.07339 11.9637Z" fill="#25252A"/>
</g>
</svg>
