<svg width="24" height="24" viewBox="0 0 24 24" fill="none" xmlns="http://www.w3.org/2000/svg">
<path d="M1 20V17.3556C1 16.8204 1.13949 16.3285 1.41848 15.8799C1.69746 15.4312 2.06812 15.0889 2.53044 14.8528C3.51884 14.3648 4.52319 13.9988 5.54348 13.7549C6.56377 13.5109 7.6 13.3889 8.65218 13.3889C9.70435 13.3889 10.7406 13.5109 11.7609 13.7549C12.7812 13.9988 13.7855 14.3648 14.7739 14.8528C15.2362 15.0889 15.6069 15.4312 15.8859 15.8799C16.1649 16.3285 16.3044 16.8204 16.3044 17.3556V20H1ZM8.65218 12.4444C7.6 12.4444 6.69928 12.0745 5.95 11.3347C5.20073 10.5949 4.82609 9.70556 4.82609 8.66667C4.82609 7.62778 5.20073 6.73843 5.95 5.99861C6.69928 5.2588 7.6 4.88889 8.65218 4.88889C9.70435 4.88889 10.6051 5.2588 11.3544 5.99861C12.1036 6.73843 12.4783 7.62778 12.4783 8.66667C12.4783 9.70556 12.1036 10.5949 11.3544 11.3347C10.6051 12.0745 9.70435 12.4444 8.65218 12.4444ZM2.91304 18.1111H14.3913V17.3556C14.3913 17.1824 14.3475 17.025 14.2598 16.8833C14.1721 16.7417 14.0565 16.6315 13.913 16.5528C13.0522 16.1278 12.1833 15.809 11.3065 15.5965C10.4297 15.384 9.54493 15.2778 8.65218 15.2778C7.75942 15.2778 6.87464 15.384 5.99783 15.5965C5.12102 15.809 4.25217 16.1278 3.3913 16.5528C3.24783 16.6315 3.13225 16.7417 3.04457 16.8833C2.95688 17.025 2.91304 17.1824 2.91304 17.3556V18.1111ZM8.65218 10.5556C9.17826 10.5556 9.62863 10.3706 10.0033 10.0007C10.3779 9.63079 10.5652 9.18611 10.5652 8.66667C10.5652 8.14722 10.3779 7.70255 10.0033 7.33264C9.62863 6.96273 9.17826 6.77778 8.65218 6.77778C8.12609 6.77778 7.67573 6.96273 7.30109 7.33264C6.92645 7.70255 6.73913 8.14722 6.73913 8.66667C6.73913 9.18611 6.92645 9.63079 7.30109 10.0007C7.67573 10.3706 8.12609 10.5556 8.65218 10.5556Z" fill="#25252A"/>
<path fill-rule="evenodd" clip-rule="evenodd" d="M18.2174 20H23V10.5556H19.1739V3H11.2268C10.7503 3 10.625 3.51373 11.0352 3.75307C11.5365 4.04555 12.0918 4.42061 12.5799 4.88889H13.4348V5.96051C13.7283 6.47212 13.913 7.05714 13.913 7.72222C13.913 10.7506 13.0395 11.5031 12.4077 12.0473C12.2514 12.182 12.1098 12.3039 12 12.4444H13.4348V12.7483C14.0589 12.8839 14.7317 13.0529 15.3478 13.2995V12.4444H17.2609V14.3333H16.9359C17.0622 14.4776 17.1717 14.6345 17.2609 14.8056C18.1469 16.5056 18.2174 17.1667 18.2174 20ZM17.2609 10.5556H15.3478V8.66667H17.2609V10.5556ZM17.2609 6.77778H15.3478V4.88889H17.2609V6.77778ZM21.087 18.1111H19.1739V16.2222H21.087V18.1111ZM21.087 14.3333H19.1739V12.4444H21.087V14.3333Z" fill="#25252A"/>
</svg>
