<svg width="24" height="24" viewBox="0 0 24 24" fill="none" xmlns="http://www.w3.org/2000/svg">
<mask id="mask0_3_3471" style="mask-type:alpha" maskUnits="userSpaceOnUse" x="0" y="0" width="24" height="24">
<rect width="24" height="24" fill="#D9D9D9"/>
</mask>
<g mask="url(#mask0_3_3471)">
<path d="M12.575 21.4C12.175 21.8 11.7 22 11.15 22C10.6 22 10.125 21.8 9.725 21.4L2.575 14.25C2.19167 13.8667 2 13.3958 2 12.8375C2 12.2792 2.19167 11.8083 2.575 11.425L11.375 2.6C11.5583 2.41667 11.775 2.27083 12.025 2.1625C12.275 2.05417 12.5417 2 12.825 2H19.975C20.525 2 20.9958 2.19583 21.3875 2.5875C21.7792 2.97917 21.975 3.45 21.975 4V11.15C21.975 11.4333 21.9208 11.7 21.8125 11.95C21.7042 12.2 21.5583 12.4167 21.375 12.6L12.575 21.4ZM17.475 8C17.8917 8 18.2458 7.85417 18.5375 7.5625C18.8292 7.27083 18.975 6.91667 18.975 6.5C18.975 6.08333 18.8292 5.72917 18.5375 5.4375C18.2458 5.14583 17.8917 5 17.475 5C17.0583 5 16.7042 5.14583 16.4125 5.4375C16.1208 5.72917 15.975 6.08333 15.975 6.5C15.975 6.91667 16.1208 7.27083 16.4125 7.5625C16.7042 7.85417 17.0583 8 17.475 8ZM11.15 20L19.975 11.15V4H12.825L4 12.85L11.15 20Z" fill="#25252A"/>
</g>
</svg>
